<svg viewBox="0 0 100 100" fill="none" xmlns="http://www.w3.org/2000/svg"><rect width="100" height="100" fill="#0F172A"/><g transform="translate(25,35) scale(0.4)"><path d="M20 0H0V20H20V0Z" fill="#4FD1C5"/><path d="M40 0H20V20H40V0Z" fill="#4FD1C5"/><path d="M20 20H0V40H20V20Z" fill="#4FD1C5"/><path d="M40 20H20V40H40V20Z" fill="#4FD1C5"/><path d="M20 40H0V60H20V40Z" fill="#4FD1C5"/><path d="M-20 0H-40V20H-20V0Z" fill="#4FD1C5"/><path d="M-15 25 L-30 25" stroke="#4FD1C5" stroke-width="2"/><path d="M-15 10 L-30 10" stroke="#4FD1C5" stroke-width="2"/><path d="M50 0H60V10H50V0Z" fill="#4FD1C5"/><path d="M65 10H70V15H65V10Z" fill="#4FD1C5"/><path d="M75 15H80V20H75V15Z" fill="#4FD1C5"/><path d="M60 5H65 0H60V5Z" fill="#4FD1C5"/><path d="M70 15H75 10H70V15Z" fill="#4FD1C5"/><path d="M50 20H55V25H50V20Z" fill="#4FD1C5"/></g></svg>