<svg viewBox="0 0 64 64" fill="none" xmlns="http://www.w3.org/2000/svg"><path d="M32 12C22.059 12 14 19.465 14 28.707v.002C14 38.241 22.059 46 32 46s18-7.759 18-17.291v-.002C50 19.465 41.941 12 32 12z" stroke="#4FD1C5" stroke-width="2" stroke-linecap="round" stroke-linejoin="round"/><path d="M18 29c-3.314 0-6 2.686-6 6v3c0 3.314 2.686 6 6 6h6c3.314 0 6-2.686 6-6v-3c0-3.314-2.686-6-6-6H18z" stroke="#4FD1C5" stroke-width="2" stroke-linecap="round" stroke-linejoin="round"/><path d="M46 29c-3.314 0-6 2.686-6 6v3c0 3.314 2.686 6 6 6h6c3.314 0 6-2.686 6-6v-3c0-3.314-2.686-6-6-6H46z" stroke="#4FD1C5" stroke-width="2" stroke-linecap="round" stroke-linejoin="round"/><path d="M20 27h24v-6c0-4.418-3.582-8-8-8H28c-4.418 0-8 3.582-8 8v6z" stroke="#4FD1C5" stroke-width="2" stroke-linecap="round" stroke-linejoin="round"/><path d="M24 21v4" stroke="#4FD1C5" stroke-width="2" stroke-linecap="round" stroke-linejoin="round"/><path d="M28 21v4" stroke="#4FD1C5" stroke-width="2" stroke-linecap="round" stroke-linejoin="round"/><path d="M32 21v4" stroke="#4FD1C5" stroke-width="2" stroke-linecap="round" stroke-linejoin="round"/><path d="M36 21v4" stroke="#4FD1C5" stroke-width="2" stroke-linecap="round" stroke-linejoin="round"/><path d="M40 21v4" stroke="#4FD1C5" stroke-width="2" stroke-linecap="round" stroke-linejoin="round"/><path d="M24 52c-7.732 0-14 6.268-14 14h6c0-4.418 3.582-8 8-8s8 3.582 8 8h6c0-7.732-6.268-14-14-14z" stroke="#4FD1C5" stroke-width="2" stroke-linecap="round" stroke-linejoin="round"/></svg>