<svg xmlns="http://www.w3.org/2000/svg" viewBox="0 0 120 40" width="120" height="40">
  <g fill="#99a1b3">
    <path d="M27.4 16.1c0 .8.1 1.4.3 1.9.2.5.4.9.8 1.4.1.2.2.3.2.5 0 .2-.1.4-.4.6l-1.2.8c-.2.1-.3.2-.5.2-.2 0-.4-.1-.6-.3-.3-.3-.5-.6-.7-.9-.2-.3-.4-.7-.6-1.2-1.6 1.9-3.6 2.8-6 2.8-1.7 0-3.1-.5-4.1-1.5-1-.9-1.5-2.2-1.5-3.8 0-1.7.6-3 1.8-4.1 1.2-1 2.8-1.5 4.8-1.5.7 0 1.4.1 2.1.2.7.1 1.5.3 2.3.5V10c0-1.5-.3-2.5-1-3.2-.7-.7-1.8-1-3.4-1-.7 0-1.5.1-2.3.3-.8.2-1.5.5-2.3.8-.3.2-.6.3-.7.3-.2.1-.3.1-.4.1-.3 0-.5-.2-.5-.7V5.5c0-.4.1-.6.2-.8.1-.2.4-.3.7-.5.8-.4 1.7-.7 2.8-1 1.1-.3 2.2-.4 3.4-.4 2.6 0 4.5.6 5.7 1.8 1.2 1.2 1.8 3 1.8 5.4v7.1h.1zM19.3 19c.7 0 1.4-.1 2.1-.4.7-.3 1.4-.7 1.9-1.3.3-.4.6-.8.7-1.3.1-.5.2-1 .2-1.7v-.8c-.6-.2-1.2-.3-1.9-.4-.7-.1-1.3-.1-2-.1-1.3 0-2.3.3-2.9.8-.6.5-1 1.3-1 2.3 0 .9.2 1.6.7 2.1.5.5 1.2.8 2.2.8zm16.2 2.3c-.4 0-.7-.1-.9-.3-.2-.2-.4-.5-.5-1L29.6 6.1c-.1-.5-.2-.8-.2-.9 0-.4.2-.6.6-.6h1.9c.4 0 .7.1.9.3.2.2.3.5.5 1l3.7 14.5L40.5 6c.1-.5.3-.8.5-1 .2-.2.5-.3.9-.3h1.6c.4 0 .7.1.9.3.2.2.4.5.5 1l3.6 14.7L52.3 6c.1-.5.3-.8.5-1 .2-.2.5-.3.9-.3h1.8c.4 0 .6.2.6.6 0 .1 0 .3-.1.4 0 .2-.1.3-.2.6L51.1 20c-.1.5-.3.8-.5 1-.2.2-.5.3-.9.3h-1.7c-.4 0-.7-.1-.9-.3-.2-.2-.4-.5-.5-1l-3.5-14.2-3.5 14.1c-.1.5-.3.8-.5 1-.2.2-.5.3-.9.3h-1.7v.1zm25.8.6c-1 0-2-.1-3-.4-1-.3-1.7-.5-2.2-.9-.3-.2-.5-.4-.6-.6-.1-.2-.1-.4-.1-.6v-1.1c0-.5.2-.7.5-.7.1 0 .3 0 .4.1.1.1.3.1.5.2.7.3 1.4.6 2.2.7.8.2 1.5.3 2.3.3 1.2 0 2.1-.2 2.7-.7.6-.5.9-1.1.9-1.9 0-.6-.2-1-.5-1.4-.4-.4-1-.7-2-1l-2.8-.9c-1.4-.5-2.5-1.1-3.1-2-.6-.8-.9-1.8-.9-2.8 0-.8.2-1.5.5-2.2.4-.6.8-1.2 1.4-1.6.6-.4 1.3-.8 2-.9.8-.2 1.6-.3 2.5-.3.4 0 .9 0 1.4.1.5.1.9.2 1.4.3.4.1.8.3 1.2.4.4.2.6.3.8.5.3.2.4.4.5.6.1.2.1.5.1.8v1c0 .5-.2.7-.5.7-.2 0-.5-.1-.9-.3-1.3-.6-2.8-.9-4.4-.9-1.1 0-1.9.2-2.5.5-.6.4-.9.9-.9 1.7 0 .6.2 1 .6 1.4.4.4 1.1.7 2.1 1.1l2.8.9c1.4.4 2.4 1.1 3 1.9.6.8.9 1.7.9 2.7 0 .8-.2 1.6-.5 2.3-.4.7-.8 1.2-1.5 1.7-.6.5-1.3.8-2.2 1-.9.3-1.7.4-2.7.4z"/>
    <path d="M59.5 25.5c-5.2 3.8-12.7 5.9-19.2 5.9-9.1 0-17.3-3.4-23.5-9-.5-.4 0-1 .5-.7 6.7 3.9 14.9 6.2 23.5 6.2 5.8 0 12.1-1.2 17.9-3.6.9-.4 1.6.6.8 1.2z" fill="var(--primary)" opacity="0.7"/>
    <path d="M61.8 22.9c-.7-.9-4.4-.4-6.1-.2-.5.1-.6-.4-.1-.7 3-2.1 7.9-1.5 8.4-.8.6.7-.2 5.7-2.9 8.1-.4.4-.8.2-.6-.3.6-1.5 2-4.8 1.3-6.1z" fill="var(--primary)" opacity="0.7"/>
  </g>
</svg>
