<svg xmlns="http://www.w3.org/2000/svg" viewBox="0 0 140 40" width="140" height="40">
  <g fill="#99a1b3">
    <path d="M16.8 15.1v-1.6c.2 0 .4 0 .6-.1 3.7-.2 5.9 3.1 5.9 3.1s-2.3 3.6-4.8 3.6c-.6 0-1.1-.1-1.7-.4v-3.9c1.7.2 2 .9 3.1-.6l-3.1-1v.9zm0-4.3v-1l.3-.1c5.1-.4 8.2 4.2 8.2 4.2s-3.5 4.8-6.9 4.8c-.6 0-1.1-.1-1.6-.2v-1.5c.5.2 1 .4 1.6.4 2.6 0 4.4-2.7 4.4-2.7s-1.8-2.6-4.7-2.6c-.4 0-.9 0-1.3.1v-.4zm0 10.1v.6c-3.6-.6-4.7-4.4-4.7-4.4s1.5-1.8 4.7-2.2v.7c-1.7-.2-3 1.2-3 1.2s.7 2.7 3 4.1zM10.3 17c0 0 1.7 5.1 6.5 5.7v1.4H8V8.5h2.9c-.7.8-3.2 4.2-3.2 8z"/>
    <text x="88" y="25" font-family="Inter, Arial, sans-serif" font-size="16" font-weight="700" letter-spacing="1">NVIDIA</text>
  </g>
</svg>
