<svg width="48" height="48" viewBox="0 0 48 48" fill="none" xmlns="http://www.w3.org/2000/svg">
<g clip-path="url(#clip0_885_244)">
<path d="M48 4.92284C48 2.20879 45.7912 0 43.0772 0H25.4439L23.9977 1.44626L22.5514 0H4.92284C2.20879 0 0 2.20879 0 4.92284V22.5537L1.44626 24L0 25.4463V43.0795C0 45.7935 2.20879 48.0023 4.92284 48.0023H22.5537L24 46.5561L25.4463 48.0023H43.0795C45.7935 48.0023 48.0023 45.7935 48.0023 43.0795V25.4463L46.5561 24L48.0023 22.5537V4.92284H48ZM45.5942 21.5571L43.1513 24L45.5942 26.4429V43.0795C45.5942 44.4678 44.4655 45.5965 43.0772 45.5965H26.4406L23.9977 43.1536L21.5548 45.5965H4.92284C3.53452 45.5965 2.40579 44.4678 2.40579 43.0795V26.4429L4.84867 24L2.40579 21.5571V4.92284C2.40579 3.53452 3.53452 2.40579 4.92284 2.40579H21.5571L24 4.84867L26.4429 2.40579H43.0795C44.4678 2.40579 45.5965 3.53452 45.5965 4.92284V21.5571H45.5942Z" fill="white"/>
<path d="M9.77615 9.93399H11.241V11.7094H12.2515V7.52588H11.241V9.14597H9.77615V7.52588H8.76562V11.7094H9.77615V9.93399Z" fill="white"/>
<path d="M21.8654 9.93399H23.3279V11.7094H24.3407V7.52588H23.3279V9.14597H21.8654V7.52588H20.8525V11.7094H21.8654V9.93399Z" fill="white"/>
<path d="M14.451 11.7094H15.8671V10.9213H14.451V9.93399H15.7443V9.14597H14.451V8.3139H15.8671V7.52588H14.451H13.8739H13.4405V11.7094H13.8739H14.451Z" fill="white"/>
<path d="M16.7594 35.0371H16.1591V40.8082H16.7594H17.5544H19.5083V39.7212H17.5544V38.3584H19.3391V37.2714H17.5544V36.1241H19.5083V35.0371H17.5544H16.7594Z" fill="white"/>
<path d="M36.4925 8.80526L38.1103 11.7094H38.4927H39.2251H39.392V7.52588H38.4927V10.3906L36.9027 7.52588H36.4925H35.7786H35.5932V11.7094H36.4925V8.80526Z" fill="white"/>
<path d="M33.1249 11.7094H34.541V10.9213H33.1249V9.93399H34.4182V9.14597H33.1249V8.3139H34.541V7.52588H33.1249H32.5478H32.1143V11.7094H32.5478H33.1249Z" fill="white"/>
<path d="M27.1521 11.7673H27.6133C28.6007 11.7673 29.4072 10.9607 29.4072 9.97335V9.25485C29.4072 8.2675 28.6007 7.46094 27.6133 7.46094H27.1521C26.1648 7.46094 25.3582 8.2675 25.3582 9.25485V9.97335C25.3582 10.9607 26.1648 11.7673 27.1521 11.7673ZM26.4498 9.17605C26.4498 8.70324 26.8369 8.31386 27.312 8.31386H27.4001C27.8752 8.31386 28.2623 8.70324 28.2623 9.17605V10.0267C28.2623 10.5018 27.8752 10.8888 27.4001 10.8888H27.312C26.8369 10.8888 26.4498 10.5018 26.4498 10.0267V9.17605Z" fill="white"/>
<path d="M18.5696 11.7695H19.0447C19.3182 11.7695 19.5755 11.7139 19.8096 11.6096V10.5643C19.6218 10.7914 19.3483 10.9351 19.0424 10.9351H18.7782C18.215 10.9351 17.7561 10.4507 17.7561 9.85507V9.42165C17.7561 8.82832 18.215 8.34391 18.7782 8.34391H19.0424C19.2695 8.34391 19.4804 8.42503 19.652 8.55946L20.0135 7.78766C19.7308 7.62078 19.4016 7.52344 19.047 7.52344H18.5719C17.5591 7.52344 16.7316 8.31842 16.7316 9.28954V9.99645C16.7316 10.9699 17.5614 11.7649 18.5719 11.7649L18.5696 11.7695Z" fill="white"/>
<path d="M37.1878 34.9907H36.5597C35.2178 34.9907 34.1169 36.0893 34.1169 37.4336V38.4117C34.1169 39.756 35.2155 40.8546 36.5597 40.8546H37.1878C38.5298 40.8546 39.6307 39.756 39.6307 38.4117V37.4336C39.6307 36.0916 38.5321 34.9907 37.1878 34.9907ZM38.0709 38.4835C38.0709 39.1279 37.5424 39.6563 36.8981 39.6563H36.7776C36.1333 39.6563 35.6048 39.1279 35.6048 38.4835V37.327C35.6048 36.6827 36.1333 36.1542 36.7776 36.1542H36.8981C37.5424 36.1542 38.0709 36.6827 38.0709 37.327V38.4835Z" fill="white"/>
<path d="M31.9359 36.1241H32.2951C32.6057 36.1241 32.8931 36.2353 33.1249 36.4231L33.6162 35.3546C33.2338 35.1251 32.7818 34.9907 32.2997 34.9907H31.6531C30.2764 34.9907 29.1476 36.0893 29.1476 37.4313V38.4094C29.1476 39.7536 30.2764 40.8546 31.6531 40.8546H32.2997C32.6706 40.8546 33.0229 40.7758 33.3381 40.6344V39.1904C33.0831 39.5056 32.71 39.705 32.2928 39.705H31.9335C31.1664 39.705 30.5406 39.0351 30.5406 38.2124V37.6144C30.5406 36.7962 31.1664 36.1264 31.9335 36.1264L31.9359 36.1241Z" fill="white"/>
<path d="M13.554 35.0371H12.9792L11.679 39.3249L10.3625 35.0371H8.48749V40.8175H9.72979V36.7777C10.0705 37.9088 10.9814 40.8175 10.9814 40.8175H12.2376L13.5517 36.6549V40.8175H14.794V35.0371H13.5517H13.554Z" fill="white"/>
<path d="M17.9716 34.6199L19.1281 33.7739H17.6749L16.9912 34.6199H17.9716Z" fill="white"/>
<path d="M25.3304 35.0371H23.8053L22.6719 36.9029L21.5362 35.0371H20.0135L21.8213 37.8601L19.9092 40.8082H21.4853L22.6696 38.8776L23.854 40.8082H25.5158L23.4855 37.918L25.3304 35.0371Z" fill="white"/>
<path d="M26.3757 35.0371H25.7198V35.8483L26.3757 36.189V39.6563L25.7198 39.997V40.8082H26.3757H27.7686H28.4245V39.997L27.7686 39.6563V36.189L28.4245 35.8483V35.0371H27.7686H26.3757Z" fill="white"/>
<path d="M25.488 26.1067L23.2792 24.2363L21.9372 24.4959L24.5099 26.8183L25.488 26.1067Z" fill="white"/>
<path d="M31.4932 31.1967L26.8902 27.2983L25.8797 28.0539L29.3632 31.1967H31.4932Z" fill="white"/>
<path d="M28.3944 23.68L25.7731 22.4424L24.4566 23.643L26.67 25.2793L28.3944 23.68Z" fill="white"/>
<path d="M37.6792 31.1965V28.0722L30.0863 24.4844L30.0748 24.4983C30.0748 24.4983 29.1847 25.5482 28.1232 26.3548L34.6801 31.1988H37.6769L37.6792 31.1965Z" fill="white"/>
<path d="M26.4452 21.3414L29.5347 22.4377C29.5857 22.3705 30.6078 20.9822 31.069 20.2822H26.7813L26.4452 21.3414Z" fill="white"/>
<path d="M39.5658 20.2845H33.1758C33.1758 20.2845 32.1723 22.0924 31.2962 23.0681L39.5635 26.0047V20.2822L39.5658 20.2845Z" fill="white"/>
<path d="M36.4346 17.9692L37.1229 16.0479H31.9475L31.2545 17.9692L31.12 18.347H36.2978L36.4346 17.9692Z" fill="white"/>
<path d="M21.972 16.2147L19.2533 17.3411L16.8336 18.347L15.6469 18.8384L15.8555 19.0238L17.1071 20.1549L17.3806 20.4005L18.4954 19.9787L19.4851 19.6079L22.8296 18.347H23.701H24.8112H29.442L29.5764 17.9692L30.2671 16.0479H22.3776L21.972 16.2147Z" fill="white"/>
<path d="M24.9201 20.271H23.4669C23.0752 20.8759 22.3938 21.2746 21.622 21.2746C21.2929 21.2746 20.9823 21.2027 20.7019 21.0729L19.244 21.6199C19.8467 22.3199 20.7367 22.7649 21.7333 22.7649C23.2746 22.7649 24.5679 21.7033 24.9178 20.271H24.9201Z" fill="white"/>
<path d="M10.293 27.3234C10.4228 27.4138 10.6013 27.3489 10.643 27.196C10.7264 26.8808 10.9327 26.4195 11.4264 26.255H14.152L16.8591 28.3734H22.7137V27.6502L15.494 21.1235H11.4264C11.4264 21.1235 9.43313 21.3136 8.71001 23.6893C8.13985 25.562 9.63478 26.8576 10.293 27.3234Z" fill="white"/>
</g>
<defs>
<clipPath id="clip0_885_244">
<rect width="48" height="48" fill="white"/>
</clipPath>
</defs>
</svg>
