<svg viewBox="0 0 500 500" fill="none" xmlns="http://www.w3.org/2000/svg"><rect width="500" height="500" fill="#0F172A"/><g transform="translate(125,125)"><g id="cloud1"><path d="M15.7496 21.3817C13.6158 21.3817 11.8806 19.6465 11.8806 17.5127C11.8806 15.3789 13.6158 13.6437 15.7496 13.6437C16.6207 13.6437 17.4121 13.9443 18.0006 14.4514C19.0341 9.1731 23.9819 5 29.9996 5C37.127 5 42.9996 10.8726 42.9996 18C42.9996 18.2901 42.9413 18.5775 42.8275 18.8554C44.9613 18.8554 46.6965 20.5905 46.6965 22.7243C46.6965 24.8581 44.9613 26.5933 42.8275 26.5933H19.6831C19.0946 27.1004 18.3032 27.4009 17.4321 27.4009C15.3421 27.4009 13.6431 25.6931 13.6431 23.6031C13.6431 22.7261 14.069 21.9564 14.7496 21.4581L15.7496 21.3817Z" fill="#4FD1C5"/></g><g id="cloud2"><path d="M15.7496 21.3817C13.6158 21.3817 11.8806 19.6465 11.8806 17.5127C11.8806 15.3789 13.6158 13.6437 15.7496 13.6437C16.6207 13.6437 17.4121 13.9443 18.0006 14.4514C19.0341 9.1731 23.9819 5 29.9996 5C37.127 5 42.9996 10.8726 42.9996 18C42.9996 18.2901 42.9413 18.5775 42.8275 18.8554C44.9613 18.8554 46.6965 20.5905 46.6965 22.7243C46.6965 24.8581 44.9613 26.5933 42.8275 26.5933H19.6831C19.0946 27.1004 18.3032 27.4009 17.4321 27.4009C15.3421 27.4009 13.6431 25.6931 13.6431 23.6031C13.6431 22.7261 14.069 21.9564 14.7496 21.4581L15.7496 21.3817Z" fill="#4FD1C5" transform="translate(140,-40)"/></g><g id="cloud3"><path d="M15.7496 21.3817C13.6158 21.3817 11.8806 19.6465 11.8806 17.5127C11.8806 15.3789 13.6158 13.6437 15.7496 13.6437C16.6207 13.6437 17.4121 13.9443 18.0006 14.4514C19.0341 9.1731 23.9819 5 29.9996 5C37.127 5 42.9996 10.8726 42.9996 18C42.9996 18.2901 42.9413 18.5775 42.8275 18.8554C44.9613 18.8554 46.6965 20.5905 46.6965 22.7243C46.6965 24.8581 44.9613 26.5933 42.8275 26.5933H19.6831C19.0946 27.1004 18.3032 27.4009 17.4321 27.4009C15.3421 27.4009 13.6431 25.6931 13.6431 23.6031C13.6431 22.7261 14.069 21.9564 14.7496 21.4581L15.7496 21.3817Z" fill="#4FD1C5" transform="translate(-60,-40)"/></g><g id="cloud4"><path d="M15.7496 21.3817C13.6158 21.3817 11.8806 19.6465 11.8806 17.5127C11.8806 15.3789 13.6158 13.6437 15.7496 13.6437C16.6207 13.6437 17.4121 13.9443 18.0006 14.4514C19.0341 9.1731 23.9819 5 29.9996 5C37.127 5 42.9996 10.8726 42.9996 18C42.9996 18.2901 42.9413 18.5775 42.8275 18.8554C44.9613 18.8554 46.6965 20.5905 46.6965 22.7243C46.6965 24.8581 44.9613 26.5933 42.8275 26.5933H19.6831C19.0946 27.1004 18.3032 27.4009 17.4321 27.4009C15.3421 27.4009 13.6431 25.6931 13.6431 23.6031C13.6431 22.7261 14.069 21.9564 14.7496 21.4581L15.7496 21.3817Z" fill="#4FD1C5" transform="translate(100,40)"/></g><g id="cloud5"><path d="M15.7496 21.3817C13.6158 21.3817 11.8806 19.6465 11.8806 17.5127C11.8806 15.3789 13.6158 13.6437 15.7496 13.6437C16.6207 13.6437 17.4121 13.9443 18.0006 14.4514C19.0341 9.1731 23.9819 5 29.9996 5C37.127 5 42.9996 10.8726 42.9996 18C42.9996 18.2901 42.9413 18.5775 42.8275 18.8554C44.9613 18.8554 46.6965 20.5905 46.6965 22.7243C46.6965 24.8581 44.9613 26.5933 42.8275 26.5933H19.6831C19.0946 27.1004 18.3032 27.4009 17.4321 27.4009C15.3421 27.4009 13.6431 25.6931 13.6431 23.6031C13.6431 22.7261 14.069 21.9564 14.7496 21.4581L15.7496 21.3817Z" fill="#4FD1C5" transform="translate(-100,40)"/></g><g id="data"><rect x="0" y="0" width="10" height="5" fill="#4FD1C5"/><rect x="0" y="8" width="10" height="5" fill="#4FD1C5"/><rect x="0" y="16" width="10" height="5" fill="#4FD1C5"/><rect x="0" y="24" width="10" height="5" fill="#4FD1C5"/></g><g id="data2"><rect x="50" y="0" width="10" height="5" fill="#4FD1C5"/><rect x="50" y="8" width="10" height="5" fill="#4FD1C5"/><rect x="50" y="16" width="10" height="5" fill="#4FD1C5"/></g><g id="data3"><rect x="50" y="35" width="10" height="5" fill="#4FD1C5"/><rect x="50" y="43" width="10" height="5" fill="#4FD1C5"/><rect x="50" y="51" width="10" height="5" fill="#4FD1C5"/></g><g id="data4"><rect x="0" y="35" width="10" height="5" fill="#4FD1C5"/><rect x="0" y="43" width="10" height="5" fill="#4FD1C5"/><rect x="0" y="51" width="10" height="5" fill="#4FD1C5"/></g><g id="location"><path d="M16.5 0C10.4706 0 5.6211 4.8488 5.6211 10.8782C5.6211 14.416 7.3475 17.6347 10.1541 20.4412C10.1541 20.4412 16.5 26.8782 16.5 26.8782C16.5 26.8782 22.8459 20.4412 22.8459 20.4412C25.6525 17.6347 27.3788 14.416 27.3788 10.8782C27.3788 4.8488 22.5294 0 16.5 0ZM16.5 14.8782C14.2891 14.8782 12.5 13.0891 12.5 10.8782C12.5 8.6673 14.2891 6.8782 16.5 6.8782C18.7109 6.8782 20.5 8.6673 20.5 10.8782C20.5 13.0891 18.7109 14.8782 16.5 14.8782Z" fill="#4FD1C5"/></g><g id="dashboard"><rect x="0" y="0" width="50" height="30" stroke="#4FD1C5" stroke-width="2"/><rect x="2" y="2" width="46" height="8" fill="#4FD1C5"/><rect x="10" y="15" width="4" height="13" stroke="#4FD1C5" stroke-width="2"/><rect x="16" y="15" width="4" height="9" stroke="#4FD1C5" stroke-width="2"/><rect x="22" y="15" width="4" height="11" stroke="#4FD1C5" stroke-width="2"/><rect x="28" y="15" width="4" height="13" stroke="#4FD1C5" stroke-width="2"/><rect x="34" y="15" width="4" height="9" stroke="#4FD1C5" stroke-width="2"/><rect x="40" y="15" width="4" height="13" stroke="#4FD1C5" stroke-width="2"/></g><g id="hexagon"><polygon points="0 20, 20 0, 60 0, 80 20, 60 40, 20 40" fill="#0F172A"/><polygon points="1 20, 21 1, 60 1, 79 20, 60 39, 20 39" fill="#4FD1C5"/></g><g id="frida"><text x="25" y="25" font-size="10" fill="#4FD1C5" font-family="Arial">FRIDA</text></g><path d="M40 40 L40 70" stroke="#4FD1C5" stroke-width="2"/><path d="M-40 -40 L-40 -70" stroke="#4FD1C5" stroke-width="2"/><path d="M-40 40 L-40 70" stroke="#4FD1C5" stroke-width="2"/><path d="M40 -40 L40 -70" stroke="#4FD1C5" stroke-width="2"/><path d="M70 0 L100 0" stroke="#4FD1C5" stroke-width="2"/><path d="M-70 0 L-100 0" stroke="#4FD1C5" stroke-width="2"/></g></svg>