<svg viewBox="0 0 100 100" fill="none" xmlns="http://www.w3.org/2000/svg"><path d="M20 20 L40 20 C45 20 45 25 50 25 L80 25" stroke="#2C7A7B" stroke-width="2" stroke-linecap="round"/><circle cx="85" cy="25" r="3" fill="#FFFFFF" stroke="#2C7A7B" stroke-width="1"/><path d="M20 35 L40 35 C45 35 45 40 50 40 L80 40" stroke="#2C7A7B" stroke-width="2" stroke-linecap="round"/><circle cx="85" cy="40" r="3" fill="#FFFFFF" stroke="#2C7A7B" stroke-width="1"/><path d="M20 50 L40 50 C45 50 45 55 50 55 L80 55" stroke="#2C7A7B" stroke-width="2" stroke-linecap="round"/><circle cx="85" cy="55" r="3" fill="#FFFFFF" stroke="#2C7A7B" stroke-width="1"/><path d="M20 65 L50 65 L80 65" stroke="#2C7A7B" stroke-width="2" stroke-linecap="round"/><circle cx="85" cy="65" r="3" fill="#FFFFFF" stroke="#2C7A7B" stroke-width="1"/><path d="M20 80 L40 80 C45 80 45 75 50 75 L80 75" stroke="#2C7A7B" stroke-width="2" stroke-linecap="round"/><circle cx="85" cy="75" r="3" fill="#FFFFFF" stroke="#2C7A7B" stroke-width="1"/></svg>