<svg viewBox="0 0 500 300" fill="none" xmlns="http://www.w3.org/2000/svg"><rect width="500" height="300" fill="#0F172A"/><g stroke="#4FD1C5"><path d="M100 225 L125 210 L150 225 L125 240 Z"/><path d="M125 210 L125 185"/><path d="M150 225 L150 200"/><path d="M125 185 L100 200 L125 210 L150 200 Z"/><path d="M125 185 L150 170 L175 185 L150 200 Z"/><path d="M175 185 L200 170 L225 185 L200 200 Z"/><path d="M175 185 L175 160"/><path d="M200 170 L200 145"/><path d="M225 185 L225 160"/><path d="M200 145 L175 160 L200 170 L225 160 Z"/><path d="M225 185 L250 170 L275 185 L250 200 Z"/><path d="M225 185 L225 210"/><path d="M250 200 L250 225"/><path d="M275 185 L275 210"/><path d="M250 225 L225 210 L250 200 L275 210 Z"/><path d="M250 225 L275 210 L300 225 L275 240 Z"/><path d="M350 120 C380 120 405 145 405 175 C405 205 380 230 350 230 C320 230 295 205 295 175 C295 145 320 120 350 120 Z"/><path d="M350 175 L350 145"/><path d="M350 175 L330 160"/></g></svg>