<svg viewBox="0 0 100 100" fill="none" xmlns="http://www.w3.org/2000/svg"><rect width="100" height="100" fill="#0F172A"/><g fill="#4FD1C5"><rect x="15" y="30" width="15" height="15" transform="rotate(-45 15 30)"/><rect x="40" y="30" width="15" height="15" transform="rotate(-45 40 30)"/><rect x="65" y="30" width="15" height="15" transform="rotate(-45 65 30)"/><rect x="30" y="15" width="40" height="5"/><rect x="30" y="20" width="40" height="5"/><rect x="30" y="25" width="40" height="5"/><circle cx="80" cy="40" r="8" stroke="#4FD1C5" stroke-width="2"/><line x1="80" y1="35" x2="80" y2="40" stroke="#4FD1C5" stroke-width="2"/><line x1="80" y1="40" x2="77" y2="44" stroke="#4FD1C5" stroke-width="2"/><line x1="80" y1="40" x2="83" y2="44" stroke="#4FD1C5" stroke-width="2"/><rect x="15" y="55" width="15" height="15" transform="rotate(-45 15 55)"/><rect x="40" y="55" width="15" height="15" transform="rotate(-45 40 55)"/><rect x="65" y="55" width="15" height="15" transform="rotate(-45 65 55)"/><rect x="15" y="80" width="15" height="15" transform="rotate(-45 15 80)"/><circle cx="15" cy="80" r="2"/><circle cx="30" cy="70" r="2"/><circle cx="70" cy="70" r="2"/><circle cx="85" cy="80" r="2"/><rect x="60" y="85" width="7" height="7" transform="rotate(-45 60 85)"/><line x1="45" y1="62" x2="17" y2="77" stroke="#4FD1C5" stroke-width="2"/><line x1="45" y1="62" x2="20" y2="62" stroke="#4FD1C5" stroke-width="2"/><line x1="45" y1="62" x2="65" y2="62" stroke="#4FD1C5" stroke-width="2"/><line x1="45" y1="62" x2="80" y2="77" stroke="#4FD1C5" stroke-width="2"/></g></svg>