<svg viewBox="0 0 100 100" fill="none" xmlns="http://www.w3.org/2000/svg"><rect width="100" height="100" fill="#0F172A"/><g transform="translate(25,25)"><path d="M10 0L0 5.7735V17.3205L10 23.094L20 17.3205V5.7735L10 0Z" stroke="#4FD1C5" stroke-width="2"/><path d="M10 23.094L0 28.8675V40.4145L10 46.188L20 40.4145V28.8675L10 23.094Z" stroke="#4FD1C5" stroke-width="2"/><path d="M10 46.188L0 51.9615V63.5085L10 69.282L20 63.5085V51.9615L10 46.188Z" stroke="#4FD1C5" stroke-width="2"/><path d="M20 5.7735L30 0V11.547L20 17.3205V5.7735Z" stroke="#4FD1C5" stroke-width="2"/><path d="M20 28.8675L30 23.094V34.641L20 40.4145V28.8675Z" stroke="#4FD1C5" stroke-width="2"/></g><circle cx="20" cy="20" r="0.7" fill="#4FD1C5"/><circle cx="30" cy="10" r="0.7" fill="#4FD1C5"/><circle cx="70" cy="15" r="0.7" fill="#4FD1C5"/><circle cx="75" cy="30" r="0.7" fill="#4FD1C5"/><circle cx="80" cy="40" r="0.7" fill="#4FD1C5"/><circle cx="75" cy="60" r="0.7" fill="#4FD1C5"/><circle cx="70" cy="75" r="0.7" fill="#4FD1C5"/><circle cx="30" cy="85" r="0.7" fill="#4FD1C5"/><circle cx="20" cy="80" r="0.7" fill="#4FD1C5"/><circle cx="10" cy="65" r="0.7" fill="#4FD1C5"/><circle cx="15" cy="35" r="0.7" fill="#4FD1C5"/></svg>