<svg viewBox="0 0 200 200" fill="none" xmlns="http://www.w3.org/2000/svg"><rect width="200" height="200" fill="#0F172A"/><g transform="translate(20, 70)"><rect x="50" y="0" width="15" height="15" fill="#4FD1C5"/><rect x="65" y="15" width="15" height="15" fill="#4FD1C5"/><rect x="50" y="15" width="15" height="15" fill="#4FD1C5"/><rect x="35" y="15" width="15" height="15" fill="#4FD1C5"/><rect x="65" y="30" width="15" height="15" fill="#4FD1C5"/><rect x="50" y="30" width="15" height="15" fill="#4FD1C5"/><rect x="35" y="30" width="15" height="15" fill="#4FD1C5"/><rect x="20" y="30" width="15" height="15" fill="#4FD1C5"/><rect x="50" y="45" width="15" height="15" fill="#4FD1C5"/><rect x="35" y="45" width="15" height="15" fill="#4FD1C5"/><rect x="20" y="45" width="15" height="15" fill="#4FD1C5"/><rect x="35" y="60" width="15" height="15" fill="#4FD1C5"/><rect x="20" y="60" width="15" height="15" fill="#4FD1C5"/><rect x="20" y="75" width="15" height="15" fill="#4FD1C5"/></g><g transform="translate(100, 10)"><path d="M 0 0 L -5 15 L 0 10 L 5 15 Z" fill="#4FD1C5"/><rect x="-1" y="16" width="2" height="4" fill="#4FD1C5"/><rect x="-1" y="22" width="2" height="4" fill="#4FD1C5"/><rect x="-1" y="28" width="2" height="4" fill="#4FD1C5"/></g><g transform="translate(15,120)"><rect x="0" y="0" width="20" height="3" fill="#4FD1C5"/><rect x="0" y="8" width="30" height="3" fill="#4FD1C5"/><rect x="0" y="16" width="40" height="3" fill="#4FD1C5"/></g></svg>