<svg viewBox="0 0 100 100" fill="none" xmlns="http://www.w3.org/2000/svg"><g id="brain"><path d="M25 30h10v5h-10z" fill="#2C7A7B"/><path d="M25 45h10v5h-10z" fill="#2C7A7B"/><path d="M25 60h10v5h-10z" fill="#2C7A7B"/><path d="M65 45h10v10h-10z" fill="#2C7A7B"/><path d="M67 47a3 3 0 01-3 3h-2a3 3 0 01-3-3v-1a3 3 0 013-3h2a3 3 0 013 3v1z" fill="#2C7A7B"/><path d="M50 45h-5c-2.2 0-4 1.8-4 4v4c0 2.2 1.8 4 4 4h5v-3h-5c-0.6 0-1-.4-1-1v-2c0-.6.4-1 1-1h5v-3z" fill="#2C7A7B"/><path d="M50 40h-5c-2.2 0-4 1.8-4 4v4c0 2.2 1.8 4 4 4h5v-3h-5c-0.6 0-1-.4-1-1v-2c0-.6.4-1 1-1h5v-3z" fill="#2C7A7B" transform="translate(15) rotate(90)"/><path d="M50 40h-5c-2.2 0-4 1.8-4 4v4c0 2.2 1.8 4 4 4h5v-3h-5c-0.6 0-1-.4-1-1v-2c0-.6.4-1 1-1h5v-3z" fill="#2C7A7B" transform="translate(15) rotate(-90)"/><path d="M50 40h-5c-2.2 0-4 1.8-4 4v4c0 2.2 1.8 4 4 4h5v-3h-5c-0.6 0-1-.4-1-1v-2c0-.6.4-1 1-1h5v-3z" fill="#2C7A7B" transform="translate(30)"/><path d="M35 32h25m-25 13h25m-25 13h25" fill="none" stroke="#2C7A7B" stroke-width="1"/><path d="M35 22h25m-25 33h25" fill="none" stroke="#2C7A7B" stroke-width="1"/></g></svg>