<svg viewBox="0 0 100 100" fill="none" xmlns="http://www.w3.org/2000/svg"><path d="M20 12C20 10 21 9 23 9H77C79 9 80 10 80 12L88 34C90 40 90 48 85 54L57 88C53 92 47 92 43 88L15 54C10 48 10 40 12 34L20 12Z" stroke="#4FD1C5" stroke-width="2" stroke-linecap="round" stroke-linejoin="round"/><path d="M29 33H71M29 50H71M29 67H71" stroke="#4FD1C5" stroke-width="2" stroke-linecap="round" stroke-linejoin="round"/><rect x="28" y="24" width="44" height="13" rx="2" stroke="#4FD1C5" stroke-width="2" stroke-linecap="round" stroke-linejoin="round"/><rect x="28" y="41" width="44" height="13" rx="2" stroke="#4FD1C5" stroke-width="2" stroke-linecap="round" stroke-linejoin="round"/><rect x="28" y="58" width="44" height="13" rx="2" stroke="#4FD1C5" stroke-width="2" stroke-linecap="round" stroke-linejoin="round"/><circle cx="63" cy="27" r="1.5" fill="#4FD1C5"/><circle cx="63" cy="44" r="1.5" fill="#4FD1C5"/><circle cx="63" cy="61" r="1.5" fill="#4FD1C5"/></svg>