<svg xmlns="http://www.w3.org/2000/svg" viewBox="0 0 500 600" fill="none">
  <defs>
    <filter id="nodeGlow" x="-50%" y="-50%" width="200%" height="200%">
      <feGaussianBlur stdDeviation="4" result="blur"/>
      <feMerge>
        <feMergeNode in="blur"/>
        <feMergeNode in="SourceGraphic"/>
      </feMerge>
    </filter>
    <linearGradient id="mapGrad" x1="0%" y1="0%" x2="100%" y2="100%">
      <stop offset="0%" stop-color="#2AF2CE" stop-opacity="0.3"/>
      <stop offset="100%" stop-color="#2AF2CE" stop-opacity="0.1"/>
    </linearGradient>
  </defs>

  <!-- Background -->
  <rect width="500" height="600" fill="#0B1426"/>

  <!-- Grid sutil -->
  <g stroke="#1A2744" stroke-width="0.5" opacity="0.3">
    <line x1="0" y1="100" x2="500" y2="100"/>
    <line x1="0" y1="200" x2="500" y2="200"/>
    <line x1="0" y1="300" x2="500" y2="300"/>
    <line x1="0" y1="400" x2="500" y2="400"/>
    <line x1="0" y1="500" x2="500" y2="500"/>
    <line x1="100" y1="0" x2="100" y2="600"/>
    <line x1="200" y1="0" x2="200" y2="600"/>
    <line x1="300" y1="0" x2="300" y2="600"/>
    <line x1="400" y1="0" x2="400" y2="600"/>
  </g>

  <!-- LATAM Countries - Real Geographic Data from Natural Earth -->
  <g fill="url(#mapGrad)" stroke="#2AF2CE" stroke-width="0.8" opacity="0.9">

    <!-- Mexico -->
    <path d="M16.0,16.3 L22.3,15.7 L29.3,15.0 L28.8,16.3 L37.2,19.5 L49.9,24.2 L60.9,24.1 L65.3,24.1 L65.3,21.4 L75.0,21.4 L77.0,23.7 L79.8,25.8 L83.1,28.7 L85.0,32.2 L86.4,35.8 L89.2,37.8 L93.8,39.8 L97.3,34.5 L101.9,34.4 L105.8,37.1 L108.6,41.6 L110.5,45.4 L113.8,49.2 L115.0,53.8 L116.6,56.9 L120.9,58.9 L124.8,60.4 L127.0,60.2 L124.8,66.0 L123.9,70.7 L123.5,79.6 L122.9,82.8 L123.9,86.4 L125.6,89.6 L126.7,94.7 L130.4,99.6 L131.7,103.4 L133.9,106.6 L139.8,108.4 L142.1,111.1 L147.0,109.3 L151.2,108.6 L155.3,107.4 L158.8,106.3 L162.4,103.6 L163.7,99.8 L164.2,94.2 L165.1,92.3 L168.9,90.6 L174.8,89.1 L179.7,89.3 L183.0,88.7 L184.4,90.1 L184.2,93.3 L181.2,97.2 L179.9,101.2 L180.9,102.4 L180.1,105.2 L178.7,110.4 L177.3,108.7 L176.1,108.8 L175.1,108.9 L173.1,112.9 L172.1,112.1 L171.4,112.4 L171.4,113.4 L166.3,113.3 L161.1,113.3 L161.1,117.0 L158.6,117.0 L160.7,119.2 L162.7,120.7 L163.3,122.2 L164.2,122.6 L164.1,124.8 L157.0,124.8 L154.3,130.2 L155.1,131.4 L154.4,133.0 L154.3,134.9 L148.0,127.8 L145.1,125.7 L140.6,123.9 L137.5,124.4 L133.0,126.9 L130.2,127.6 L126.3,125.8 L122.1,124.6 L117.0,121.5 L112.8,120.6 L106.5,117.6 L101.9,114.4 L100.5,112.6 L97.3,112.2 L91.7,110.2 L89.3,107.2 L83.4,103.4 L80.6,99.3 L79.3,96.0 L81.1,95.4 L80.6,93.5 L81.8,91.8 L81.9,89.5 L80.0,86.6 L79.5,83.9 L77.6,80.6 L72.7,74.1 L67.1,68.9 L64.4,64.8 L59.7,62.1 L58.6,60.5 L59.5,56.4 L56.7,54.9 L53.4,51.7 L52.0,47.1 L49.0,46.5 L45.8,43.1 L43.2,39.9 L42.9,37.8 L39.9,32.8 L38.0,27.8 L38.1,25.2 L34.0,22.6 L32.2,22.9 L29.0,21.1 L28.1,23.8 L29.0,26.9 L29.6,31.9 L31.5,34.6 L35.6,39.2 L36.5,40.7 L37.4,41.2 L38.1,43.4 L39.1,43.4 L40.2,47.6 L41.9,49.3 L43.1,51.6 L46.6,55.0 L48.4,61.1 L50.1,64.0 L51.6,67.1 L51.9,70.6 L54.6,70.8 L56.8,73.8 L58.8,76.7 L58.7,77.9 L56.4,80.3 L55.4,80.3 L53.9,76.3 L50.3,72.5 L46.3,69.3 L43.4,67.7 L43.6,62.8 L42.8,59.3 L40.1,57.2 L36.3,54.3 L35.6,55.1 L34.2,53.4 L30.7,51.8 L27.5,48.0 L27.9,47.5 L30.2,47.9 L32.2,45.4 L32.4,42.4 L28.2,37.7 L24.9,35.9 L22.8,31.8 L20.8,27.5 L18.2,22.2 L16.0,16.3 Z"/>

    <!-- Guatemala -->
    <path d="M154.3,134.9 L154.4,133.0 L155.1,131.4 L154.3,130.2 L157.0,124.8 L164.1,124.8 L164.2,122.6 L163.3,122.2 L162.7,120.7 L160.7,119.2 L158.6,117.0 L161.1,117.0 L161.1,113.3 L166.3,113.3 L171.4,113.4 L171.4,118.6 L170.9,126.0 L172.6,126.0 L174.4,127.2 L174.9,126.2 L176.5,127.1 L174.0,129.6 L171.4,131.4 L171.0,132.7 L171.4,134.0 L170.3,135.7 L169.0,136.1 L169.3,136.8 L168.2,137.6 L166.3,139.2 L166.1,140.2 L163.3,139.1 L159.8,138.9 L157.3,137.6 L154.3,134.9 Z"/>

    <!-- Honduras -->
    <path d="M204.7,131.9 L202.8,131.8 L202.1,132.7 L200.1,133.5 L198.7,133.5 L197.5,134.4 L196.4,134.1 L195.4,133.1 L194.9,133.2 L194.2,134.8 L193.6,134.8 L193.5,136.1 L191.6,137.9 L190.6,138.7 L190.0,139.5 L188.4,138.2 L187.2,140.0 L186.0,139.9 L184.7,140.1 L184.8,143.3 L184.0,143.4 L183.3,144.9 L181.6,145.2 L180.6,143.1 L178.9,142.5 L179.3,139.9 L178.6,139.2 L177.4,138.7 L175.0,139.5 L174.8,138.6 L173.1,137.5 L171.9,136.2 L170.3,135.7 L171.4,134.0 L171.0,132.7 L171.4,131.4 L174.0,129.6 L176.5,127.1 L177.1,127.3 L178.3,126.2 L179.9,126.1 L180.4,126.6 L181.3,126.3 L183.9,126.9 L186.4,126.7 L188.2,126.0 L188.9,125.2 L190.6,125.6 L192.0,126.0 L193.4,125.9 L194.5,125.3 L197.1,126.2 L198.0,126.4 L199.6,127.6 L201.3,129.1 L203.3,130.1 L204.7,131.9 Z"/>

    <!-- El Salvador -->
    <path d="M170.3,135.7 L171.9,136.2 L173.1,137.5 L174.8,138.6 L175.0,139.5 L177.4,138.7 L178.6,139.2 L179.3,139.9 L178.9,142.5 L178.3,144.1 L175.1,144.0 L173.1,143.3 L170.8,142.0 L167.7,141.6 L166.1,140.2 L166.3,139.2 L168.2,137.6 L169.3,136.8 L169.0,136.1 L170.3,135.7 Z"/>

    <!-- Nicaragua -->
    <path d="M201.9,158.6 L200.6,160.0 L198.9,159.6 L198.0,158.2 L196.3,157.7 L195.0,158.6 L191.3,156.8 L190.5,157.7 L188.6,155.6 L186.0,152.9 L184.7,150.7 L182.4,148.6 L179.6,145.6 L180.2,144.6 L181.2,145.6 L181.6,145.2 L183.3,144.9 L184.0,143.4 L184.8,143.3 L184.7,140.1 L186.0,139.9 L187.2,140.0 L188.4,138.2 L190.0,139.5 L190.6,138.7 L191.6,137.9 L193.5,136.1 L193.6,134.8 L194.2,134.8 L194.9,133.2 L195.4,133.1 L196.4,134.1 L197.5,134.4 L198.7,133.5 L200.1,133.5 L202.1,132.7 L202.8,131.8 L204.7,131.9 L204.3,132.5 L204.0,134.0 L204.5,136.4 L203.3,138.7 L202.7,141.3 L202.5,144.2 L202.8,145.9 L202.9,148.9 L202.1,149.5 L201.6,152.4 L201.9,154.1 L200.8,155.8 L201.1,157.6 L201.9,158.6 Z"/>

    <!-- Costa Rica -->
    <path d="M208.1,167.7 L205.9,168.3 L206.0,170.9 L207.1,171.9 L206.3,172.7 L206.5,173.9 L206.0,175.2 L205.7,176.5 L202.7,175.1 L201.6,173.7 L202.2,172.5 L202.0,171.1 L200.5,169.5 L198.3,168.2 L196.4,167.4 L196.0,165.4 L194.6,164.3 L194.9,166.2 L193.8,167.8 L192.6,165.9 L190.8,165.3 L190.0,163.9 L190.0,161.9 L190.8,159.9 L189.2,158.9 L190.5,157.7 L191.3,156.8 L195.0,158.6 L196.3,157.7 L198.0,158.2 L198.9,159.6 L200.6,160.0 L201.9,158.6 L203.3,162.2 L205.5,164.9 L208.1,167.7 Z"/>

    <!-- Panama -->
    <path d="M236.9,173.6 L236.3,174.6 L237.5,178.4 L236.5,180.4 L234.7,179.9 L234.0,183.1 L232.1,181.2 L230.9,177.7 L232.3,175.9 L230.9,175.5 L229.9,173.3 L227.1,171.5 L224.7,171.9 L223.6,174.2 L221.3,175.8 L220.1,176.1 L219.6,177.4 L222.2,181.0 L220.7,181.8 L219.9,182.8 L217.3,183.2 L216.3,179.2 L215.6,180.3 L213.8,180.0 L212.7,177.3 L210.4,176.9 L208.9,176.1 L206.6,176.1 L206.4,177.5 L205.7,176.5 L206.0,175.2 L206.5,173.9 L206.3,172.7 L207.1,171.9 L206.0,170.9 L205.9,168.3 L208.1,167.7 L210.1,170.1 L210.0,171.5 L212.2,171.8 L212.7,171.2 L214.2,172.8 L217.0,172.4 L219.3,170.7 L222.7,169.4 L224.6,167.4 L227.7,167.8 L227.5,168.4 L230.6,168.7 L233.0,169.8 L234.8,171.8 L236.9,173.6 Z"/>

    <!-- Colombia -->
    <path d="M295.1,222.5 L294.1,223.3 L293.0,219.4 L291.5,217.3 L289.6,219.6 L278.8,219.5 L278.9,223.6 L282.1,224.3 L281.9,226.8 L280.8,226.1 L277.7,227.2 L277.7,232.0 L280.1,234.4 L281.0,238.2 L280.9,241.0 L278.4,259.1 L275.6,255.6 L273.9,255.4 L277.5,248.7 L273.3,245.6 L269.9,246.2 L267.9,245.1 L264.9,246.8 L260.7,246.0 L257.4,239.1 L254.9,237.4 L253.1,234.3 L249.4,231.1 L247.9,231.8 L245.5,230.2 L242.8,228.0 L241.2,229.1 L236.5,228.2 L235.2,225.3 L234.1,225.4 L228.6,221.7 L227.8,219.6 L229.9,219.1 L229.7,215.8 L231.0,213.4 L233.7,213.0 L236.1,208.8 L238.2,205.4 L236.1,203.8 L237.2,200.0 L235.9,194.0 L237.1,192.2 L236.2,186.7 L234.0,183.1 L234.7,179.9 L236.5,180.4 L237.5,178.4 L236.3,174.6 L236.9,173.6 L239.8,173.8 L244.0,169.2 L246.3,168.5 L246.3,166.3 L247.3,160.8 L250.5,157.7 L254.0,157.6 L254.5,156.2 L258.8,156.7 L263.2,153.4 L265.3,151.9 L268.0,148.8 L270.0,149.2 L271.5,150.9 L270.4,153.1 L266.8,154.2 L265.4,157.5 L263.3,159.4 L261.6,161.9 L261.0,166.6 L259.4,170.4 L262.3,170.9 L263.0,173.9 L264.2,175.3 L264.7,178.0 L264.0,180.4 L264.2,181.8 L265.6,182.4 L266.9,184.7 L274.0,184.0 L277.3,184.9 L281.2,190.6 L283.4,189.8 L287.4,190.2 L290.6,189.4 L292.5,190.6 L291.5,194.1 L290.3,196.3 L289.9,201.1 L291.0,205.5 L292.6,207.4 L292.8,208.9 L289.9,212.2 L292.0,213.6 L293.4,215.9 L295.1,222.5 Z"/>

    <!-- Venezuela -->
    <path d="M329.3,196.5 L330.0,198.3 L328.0,200.9 L321.7,203.3 L317.8,204.3 L316.1,205.9 L311.7,204.3 L307.6,203.4 L306.6,204.0 L309.1,205.7 L308.8,210.2 L309.6,214.3 L314.3,214.9 L314.6,216.3 L310.6,218.1 L310.0,220.9 L307.7,222.0 L303.6,223.5 L302.5,225.6 L298.2,226.0 L295.1,222.5 L293.4,215.9 L292.0,213.6 L289.9,212.2 L292.8,208.9 L292.6,207.4 L291.0,205.5 L289.9,201.1 L290.3,196.3 L291.5,194.1 L292.5,190.6 L290.6,189.4 L287.4,190.2 L283.4,189.8 L281.2,190.6 L277.3,184.9 L274.0,184.0 L266.9,184.7 L265.6,182.4 L264.2,181.8 L264.0,180.4 L264.7,178.0 L264.2,175.3 L263.0,173.9 L262.3,170.9 L259.4,170.4 L261.0,166.6 L261.6,161.9 L263.3,159.4 L265.4,157.5 L266.8,154.2 L270.4,153.1 L270.2,154.7 L267.0,155.5 L268.8,158.4 L268.7,161.9 L266.3,165.7 L268.4,171.0 L270.8,170.5 L272.0,165.8 L270.3,163.4 L270.0,158.4 L276.9,155.8 L276.1,152.7 L278.1,150.6 L280.1,155.2 L284.0,155.3 L287.6,159.0 L287.8,161.2 L292.8,161.2 L298.7,160.6 L301.9,163.5 L306.2,164.3 L309.3,162.3 L309.3,160.6 L316.2,160.2 L322.9,160.1 L318.2,162.1 L320.1,165.2 L324.5,165.7 L328.7,168.9 L329.6,174.2 L332.5,174.0 L334.7,175.6 L330.3,179.5 L329.8,181.9 L331.7,184.3 L330.3,185.6 L326.9,186.6 L327.0,189.7 L325.5,191.5 L329.3,196.5 Z"/>

    <!-- Guyana -->
    <path d="M352.6,218.2 L351.2,218.5 L348.1,217.9 L346.3,219.7 L343.8,220.8 L342.1,221.1 L341.4,222.4 L338.7,222.1 L335.3,219.0 L334.9,215.9 L333.5,212.6 L334.4,207.0 L335.9,204.7 L334.6,201.6 L332.7,200.6 L333.4,197.7 L332.1,196.2 L329.3,196.5 L325.5,191.5 L327.0,189.7 L326.9,186.6 L330.3,185.6 L331.7,184.3 L329.8,181.9 L330.3,179.5 L334.7,175.6 L338.3,178.0 L341.8,182.3 L341.9,185.7 L344.0,185.9 L347.0,189.1 L349.2,191.4 L348.3,197.3 L344.9,199.0 L345.2,200.6 L344.2,204.0 L346.7,208.8 L348.4,208.8 L349.2,212.5 L352.6,218.2 Z"/>

    <!-- Suriname -->
    <path d="M363.8,215.5 L360.6,214.1 L357.9,214.8 L355.7,214.2 L355.1,216.1 L356.1,217.4 L355.6,218.8 L352.6,218.2 L349.2,212.5 L348.4,208.8 L346.7,208.8 L344.2,204.0 L345.2,200.6 L344.9,199.0 L348.3,197.3 L349.2,191.4 L355.8,192.7 L356.4,191.5 L360.9,191.0 L366.9,192.8 L364.0,198.5 L364.4,203.0 L366.6,206.9 L365.7,209.7 L365.2,212.8 L363.8,215.5 Z"/>

    <!-- Ecuador -->
    <path d="M247.9,231.8 L248.7,236.8 L247.0,241.1 L240.9,248.0 L234.2,250.6 L230.8,256.3 L229.8,260.8 L226.6,263.5 L224.3,260.1 L222.1,259.4 L219.8,259.9 L219.6,257.5 L221.2,256.0 L220.5,253.2 L223.5,248.3 L222.3,245.4 L220.2,248.5 L216.8,245.6 L218.0,243.7 L217.0,237.7 L219.0,236.7 L220.0,232.6 L222.1,228.4 L221.7,225.7 L224.8,224.3 L228.6,221.7 L234.1,225.4 L235.2,225.3 L236.5,228.2 L241.2,229.1 L242.8,228.0 L245.5,230.2 L247.9,231.8 Z"/>

    <!-- Peru -->
    <path d="M278.4,259.1 L273.4,258.8 L272.6,259.8 L268.1,261.1 L261.7,265.5 L261.3,268.6 L259.9,270.9 L260.4,274.5 L257.1,276.4 L257.1,279.2 L255.6,280.4 L257.9,286.3 L261.0,290.3 L259.9,293.2 L263.5,293.5 L265.6,297.1 L270.5,297.2 L275.1,293.3 L274.7,303.4 L277.3,304.1 L280.4,303.0 L285.2,313.6 L284.0,315.8 L283.7,320.5 L283.6,326.1 L281.4,329.4 L282.4,331.8 L281.2,334.0 L283.6,339.6 L280.1,346.7 L278.6,350.1 L275.7,351.7 L270.1,348.0 L269.7,345.3 L258.6,338.6 L248.7,331.4 L244.4,327.4 L242.1,321.9 L243.0,320.0 L238.3,311.4 L232.8,299.2 L227.6,286.1 L225.3,283.1 L223.6,278.2 L219.2,273.9 L215.3,271.2 L217.1,268.3 L214.4,262.0 L216.1,257.4 L220.5,253.2 L221.2,256.0 L219.6,257.5 L219.8,259.9 L222.1,259.4 L224.3,260.1 L226.6,263.5 L229.8,260.8 L230.8,256.3 L234.2,250.6 L240.9,248.0 L247.0,241.1 L248.7,236.8 L247.9,231.8 L249.4,231.1 L253.1,234.3 L254.9,237.4 L257.4,239.1 L260.7,246.0 L264.9,246.8 L267.9,245.1 L269.9,246.2 L273.3,245.6 L277.5,248.7 L273.9,255.4 L275.6,255.6 L278.4,259.1 Z"/>

    <!-- Bolivia -->
    <path d="M280.4,303.0 L284.5,303.5 L287.4,303.4 L288.6,301.4 L293.5,298.7 L296.4,296.3 L303.7,295.1 L303.1,300.1 L303.8,302.6 L303.3,307.0 L309.4,312.9 L315.6,314.0 L317.8,316.5 L321.5,317.8 L323.8,319.7 L327.3,319.6 L330.5,321.6 L330.8,325.4 L331.9,327.3 L331.9,330.2 L330.3,330.3 L332.5,338.0 L343.1,338.2 L342.3,342.0 L342.9,344.6 L345.9,346.5 L347.2,350.6 L346.2,355.8 L344.7,358.7 L345.3,362.4 L343.5,363.8 L343.4,361.8 L338.2,358.4 L333.1,358.3 L323.4,360.2 L320.7,366.0 L320.6,369.6 L318.4,377.5 L317.5,376.1 L311.2,375.8 L309.0,381.1 L305.8,376.3 L298.5,374.7 L293.9,380.7 L289.8,381.6 L287.7,372.5 L284.7,365.1 L286.4,358.7 L283.5,355.9 L282.8,351.2 L280.1,346.7 L283.6,339.6 L281.2,334.0 L282.4,331.8 L281.4,329.4 L283.6,326.1 L283.7,320.5 L284.0,315.8 L285.2,313.6 L280.4,303.0 Z"/>

    <!-- Paraguay -->
    <path d="M343.5,363.8 L345.2,367.5 L344.8,376.4 L350.7,377.7 L352.9,376.4 L356.7,378.2 L357.7,380.1 L358.2,386.2 L358.9,388.7 L361.0,389.0 L363.0,388.0 L365.0,389.1 L365.0,392.8 L364.3,396.7 L363.2,400.5 L362.3,406.3 L357.2,411.3 L352.9,412.4 L346.6,411.4 L341.0,409.6 L346.5,399.6 L345.7,396.7 L340.0,394.1 L333.2,389.2 L328.6,388.2 L318.4,377.5 L320.6,369.6 L320.7,366.0 L323.4,360.2 L333.1,358.3 L338.2,358.4 L343.4,361.8 L343.5,363.8 Z"/>

    <!-- Brazil -->
    <path d="M370.1,453.4 L368.6,449.7 L371.1,446.6 L367.8,442.1 L363.5,438.4 L357.8,434.2 L355.7,434.4 L350.1,429.3 L346.5,430.0 L353.9,421.0 L360.2,414.6 L363.9,411.9 L368.6,408.3 L368.7,403.0 L365.9,399.2 L363.2,400.5 L364.3,396.7 L365.0,392.8 L365.0,389.1 L363.0,388.0 L361.0,389.0 L358.9,388.7 L358.2,386.2 L357.7,380.1 L356.7,378.2 L352.9,376.4 L350.7,377.7 L344.8,376.4 L345.2,367.5 L343.5,363.8 L345.3,362.4 L344.7,358.7 L346.2,355.8 L347.2,350.6 L345.9,346.5 L342.9,344.6 L342.3,342.0 L343.1,338.2 L332.5,338.0 L330.3,330.3 L331.9,330.2 L331.9,327.3 L330.8,325.4 L330.5,321.6 L327.3,319.6 L323.8,319.7 L321.5,317.8 L317.8,316.5 L315.6,314.0 L309.4,312.9 L303.3,307.0 L303.8,302.6 L303.1,300.1 L303.7,295.1 L296.4,296.3 L293.5,298.7 L288.6,301.4 L287.4,303.4 L284.5,303.5 L280.4,303.0 L277.3,304.1 L274.7,303.4 L275.1,293.3 L270.5,297.2 L265.6,297.1 L263.5,293.5 L259.9,293.2 L261.0,290.3 L257.9,286.3 L255.6,280.4 L257.1,279.2 L257.1,276.4 L260.4,274.5 L259.9,270.9 L261.3,268.6 L261.7,265.5 L268.1,261.1 L272.6,259.8 L273.4,258.8 L278.4,259.1 L280.9,241.0 L281.0,238.2 L280.1,234.4 L277.7,232.0 L277.7,227.2 L280.8,226.1 L281.9,226.8 L282.1,224.3 L278.9,223.6 L278.8,219.5 L289.6,219.6 L291.5,217.3 L293.0,219.4 L294.1,223.3 L295.1,222.5 L298.2,226.0 L302.5,225.6 L303.6,223.5 L307.7,222.0 L310.0,220.9 L310.6,218.1 L314.6,216.3 L314.3,214.9 L309.6,214.3 L308.8,210.2 L309.1,205.7 L306.6,204.0 L307.6,203.4 L311.7,204.3 L316.1,205.9 L317.8,204.3 L321.7,203.3 L328.0,200.9 L330.0,198.3 L329.3,196.5 L332.1,196.2 L333.4,197.7 L332.7,200.6 L334.6,201.6 L335.9,204.7 L334.4,207.0 L333.5,212.6 L334.9,215.9 L335.3,219.0 L338.7,222.1 L341.4,222.4 L342.1,221.1 L343.8,220.8 L346.3,219.7 L348.1,217.9 L351.2,218.5 L352.6,218.2 L355.6,218.8 L356.1,217.4 L355.1,216.1 L355.7,214.2 L357.9,214.8 L360.6,214.1 L363.8,215.5 L366.2,216.9 L367.9,215.1 L369.1,215.4 L369.9,217.2 L372.6,216.8 L374.7,214.3 L376.4,209.4 L379.7,203.4 L381.6,203.1 L382.9,206.7 L386.1,218.2 L389.0,219.3 L389.2,223.9 L385.0,229.3 L386.7,231.3 L396.6,232.3 L396.8,238.9 L401.0,234.6 L408.0,237.0 L417.2,241.0 L419.9,244.9 L419.0,248.5 L425.5,246.5 L436.3,250.0 L444.6,249.7 L452.8,255.2 L459.9,262.6 L464.2,264.5 L468.9,264.7 L470.9,266.8 L472.8,275.2 L473.7,279.2 L471.5,290.1 L468.7,294.4 L460.9,303.6 L457.3,311.0 L453.2,316.7 L451.8,316.9 L450.3,321.7 L450.7,334.1 L449.1,344.2 L448.5,348.6 L446.8,351.2 L445.8,360.0 L440.1,368.6 L439.2,375.4 L434.7,378.3 L433.4,382.2 L427.4,382.2 L418.6,384.7 L414.7,387.7 L408.5,389.6 L402.0,394.8 L397.2,401.4 L396.4,406.3 L397.4,410.0 L396.3,416.6 L395.1,419.8 L391.2,423.5 L385.0,435.1 L380.1,440.3 L376.4,443.4 L373.8,449.6 L370.1,453.4 Z"/>

    <!-- Uruguay -->
    <path d="M346.5,430.0 L350.1,429.3 L355.7,434.4 L357.8,434.2 L363.5,438.4 L367.8,442.1 L371.1,446.6 L368.6,449.7 L370.1,453.4 L367.7,457.6 L361.5,461.2 L357.4,459.9 L354.4,460.6 L349.2,457.8 L345.5,458.0 L342.1,454.3 L342.5,450.1 L343.7,448.6 L343.7,442.1 L345.1,435.3 L346.5,430.0 Z"/>

    <!-- Argentina -->
    <path d="M285.4,577.8 L287.5,580.9 L290.3,585.8 L297.5,589.8 L305.3,591.4 L302.8,594.7 L297.5,595.1 L294.7,592.7 L291.3,592.5 L285.4,592.5 L285.4,577.8 Z M346.5,430.0 L345.1,435.3 L343.7,442.1 L343.7,448.6 L342.5,450.1 L342.1,454.3 L341.7,457.8 L348.7,463.4 L348.0,468.0 L351.5,470.9 L351.2,474.1 L345.8,482.5 L337.6,486.1 L326.5,487.4 L320.4,486.8 L321.5,490.7 L320.4,495.6 L321.4,499.0 L318.1,501.3 L312.4,502.2 L307.0,499.8 L304.9,501.5 L305.7,508.1 L309.4,510.1 L312.5,508.0 L314.1,511.4 L309.0,513.5 L304.5,517.6 L303.7,524.2 L302.4,527.7 L297.2,527.7 L292.8,531.1 L291.2,536.1 L296.7,540.9 L302.0,542.2 L300.1,548.1 L293.5,551.9 L289.9,559.6 L284.8,562.2 L282.6,565.3 L284.4,572.1 L288.1,575.9 L285.7,575.6 L280.6,574.6 L267.1,573.7 L264.8,569.8 L264.9,564.9 L261.2,565.3 L259.3,562.9 L258.8,555.9 L263.1,553.0 L264.8,548.9 L264.2,545.5 L267.1,539.9 L269.2,531.2 L268.6,527.3 L271.0,526.0 L270.4,523.6 L267.8,522.2 L269.6,519.5 L267.1,517.0 L265.8,509.4 L268.1,508.0 L267.1,500.0 L268.4,493.2 L269.9,487.4 L273.3,485.0 L271.6,478.5 L271.5,472.5 L275.8,468.2 L275.6,462.7 L278.8,456.2 L278.8,450.2 L277.4,449.0 L274.8,437.6 L278.2,430.8 L277.7,424.4 L279.7,418.4 L283.3,412.2 L287.2,408.1 L285.6,405.5 L286.7,403.4 L286.6,392.4 L292.6,389.2 L294.5,382.3 L293.9,380.7 L298.5,374.7 L305.8,376.3 L309.0,381.1 L311.2,375.8 L317.5,376.1 L318.4,377.5 L328.6,388.2 L333.2,389.2 L340.0,394.1 L345.7,396.7 L346.5,399.6 L341.0,409.6 L346.6,411.4 L352.9,412.4 L357.2,411.3 L362.3,406.3 L363.2,400.5 L365.9,399.2 L368.7,403.0 L368.6,408.3 L363.9,411.9 L360.2,414.6 L353.9,421.0 L346.5,430.0 Z"/>

    <!-- Chile -->
    <path d="M285.4,577.8 L285.4,592.5 L291.3,592.5 L294.7,592.7 L292.8,595.4 L288.1,597.4 L285.3,597.2 L282.0,596.7 L278.0,594.7 L272.2,593.8 L265.2,590.1 L259.5,586.5 L251.9,579.1 L256.5,580.5 L264.3,584.9 L271.6,587.3 L274.5,584.3 L276.3,579.8 L281.4,577.0 L285.4,577.8 Z M280.1,346.7 L282.8,351.2 L283.5,355.9 L286.4,358.7 L284.7,365.1 L287.7,372.5 L289.8,381.6 L293.9,380.7 L294.5,382.3 L292.6,389.2 L286.6,392.4 L286.7,403.4 L285.6,405.5 L287.2,408.1 L283.3,412.2 L279.7,418.4 L277.7,424.4 L278.2,430.8 L274.8,437.6 L277.4,449.0 L278.8,450.2 L278.8,456.2 L275.6,462.7 L275.8,468.2 L271.5,472.5 L271.6,478.5 L273.3,485.0 L269.9,487.4 L268.4,493.2 L267.1,500.0 L268.1,508.0 L265.8,509.4 L267.1,517.0 L269.6,519.5 L267.8,522.2 L270.4,523.6 L271.0,526.0 L268.6,527.3 L269.2,531.2 L267.1,539.9 L264.2,545.5 L264.8,548.9 L263.1,553.0 L258.8,555.9 L259.3,562.9 L261.2,565.3 L264.9,564.9 L264.8,569.8 L267.1,573.7 L280.6,574.6 L285.7,575.6 L280.8,575.6 L278.1,577.2 L273.1,579.6 L272.2,585.7 L269.8,585.9 L263.6,583.7 L257.2,579.1 L257.2,579.1 L250.3,575.4 L248.6,571.2 L250.1,567.3 L247.3,562.9 L246.6,551.7 L249.0,545.4 L254.9,540.3 L246.4,538.3 L251.7,532.5 L253.6,521.6 L259.8,523.9 L262.7,510.2 L259.0,508.5 L257.2,516.7 L253.7,515.8 L255.5,506.3 L257.3,494.1 L259.9,489.6 L258.3,483.2 L257.8,475.8 L260.2,475.5 L263.6,464.9 L267.4,454.3 L269.8,444.5 L268.5,434.6 L270.2,429.2 L269.5,421.1 L272.7,413.0 L273.8,400.3 L275.5,386.6 L277.3,371.8 L276.9,361.0 L275.7,351.7 L278.6,350.1 L280.1,346.7 Z"/>

  </g>

  <!-- Connection Network - Animated data flow lines -->
  <g stroke="#2AF2CE" stroke-width="1.5" fill="none" opacity="0.6">
    <!-- Mexico City to Bogota -->
    <path d="M130,95 Q180,180 265,190" stroke-dasharray="8,6">
      <animate attributeName="stroke-dashoffset" from="0" to="28" dur="3s" repeatCount="indefinite"/>
    </path>

    <!-- Bogota to Sao Paulo -->
    <path d="M265,190 Q350,300 420,350" stroke-dasharray="8,6">
      <animate attributeName="stroke-dashoffset" from="0" to="28" dur="3s" repeatCount="indefinite"/>
    </path>

    <!-- Sao Paulo to Buenos Aires -->
    <path d="M420,350 Q350,420 310,480" stroke-dasharray="8,6">
      <animate attributeName="stroke-dashoffset" from="0" to="28" dur="3s" repeatCount="indefinite"/>
    </path>
  </g>

  <!-- NODE POINTS - 4 data centers with glow -->
  <g filter="url(#nodeGlow)">
    <!-- Mexico City -->
    <circle cx="130" cy="95" r="10" fill="#0B1426" stroke="#2AF2CE" stroke-width="2.5"/>
    <circle cx="130" cy="95" r="5" fill="#2AF2CE">
      <animate attributeName="r" values="4;6;4" dur="2s" repeatCount="indefinite"/>
    </circle>

    <!-- Bogota -->
    <circle cx="265" cy="190" r="10" fill="#0B1426" stroke="#2AF2CE" stroke-width="2.5"/>
    <circle cx="265" cy="190" r="5" fill="#2AF2CE">
      <animate attributeName="r" values="4;6;4" dur="2s" repeatCount="indefinite" begin="0.5s"/>
    </circle>

    <!-- Sao Paulo -->
    <circle cx="420" cy="350" r="10" fill="#0B1426" stroke="#2AF2CE" stroke-width="2.5"/>
    <circle cx="420" cy="350" r="5" fill="#2AF2CE">
      <animate attributeName="r" values="4;6;4" dur="2s" repeatCount="indefinite" begin="1s"/>
    </circle>

    <!-- Buenos Aires -->
    <circle cx="310" cy="480" r="10" fill="#0B1426" stroke="#2AF2CE" stroke-width="2.5"/>
    <circle cx="310" cy="480" r="5" fill="#2AF2CE">
      <animate attributeName="r" values="4;6;4" dur="2s" repeatCount="indefinite" begin="1.5s"/>
    </circle>
  </g>

  <!-- TOOLTIPS with sovereignty messages -->

  <!-- Mexico tooltip -->
  <g transform="translate(8, 38)">
    <rect width="175" height="52" rx="6" fill="#0F1A2E" stroke="#1A2744" stroke-width="1"/>
    <circle cx="14" cy="17" r="5" fill="#2AF2CE"/>
    <path d="M11.5,15.5 L13.5,17.5 L17,14" stroke="#0F1A2E" stroke-width="2" fill="none"/>
    <text x="26" y="20" fill="#2AF2CE" font-family="Inter, system-ui, sans-serif" font-size="11" font-weight="600">Residencia de datos en México</text>
    <text x="14" y="40" fill="#94A3B8" font-family="Inter, system-ui, sans-serif" font-size="10">Sin transferencias transfronterizas</text>
    <line x1="175" y1="40" x2="122" y2="87" stroke="#1A2744" stroke-width="1"/>
  </g>

  <!-- Colombia tooltip -->
  <g transform="translate(290, 135)">
    <rect width="160" height="52" rx="6" fill="#0F1A2E" stroke="#1A2744" stroke-width="1"/>
    <circle cx="14" cy="17" r="5" fill="#2AF2CE"/>
    <path d="M11.5,15.5 L13.5,17.5 L17,14" stroke="#0F1A2E" stroke-width="2" fill="none"/>
    <text x="26" y="20" fill="#2AF2CE" font-family="Inter, system-ui, sans-serif" font-size="11" font-weight="600">Cumple Ley 1581</text>
    <text x="14" y="40" fill="#94A3B8" font-family="Inter, system-ui, sans-serif" font-size="10">Habeas Data Colombia</text>
    <line x1="0" y1="40" x2="-25" y2="55" stroke="#1A2744" stroke-width="1"/>
  </g>

  <!-- Brazil tooltip -->
  <g transform="translate(8, 320)">
    <rect width="130" height="52" rx="6" fill="#0F1A2E" stroke="#1A2744" stroke-width="1"/>
    <circle cx="14" cy="17" r="5" fill="#2AF2CE"/>
    <path d="M11.5,15.5 L13.5,17.5 L17,14" stroke="#0F1A2E" stroke-width="2" fill="none"/>
    <text x="26" y="20" fill="#2AF2CE" font-family="Inter, system-ui, sans-serif" font-size="11" font-weight="600">Cumple LGPD</text>
    <text x="14" y="40" fill="#94A3B8" font-family="Inter, system-ui, sans-serif" font-size="10">Lei Geral de Proteção</text>
    <line x1="130" y1="26" x2="410" y2="0" stroke="#1A2744" stroke-width="1"/>
  </g>

  <!-- Argentina tooltip -->
  <g transform="translate(8, 425)">
    <rect width="155" height="52" rx="6" fill="#0F1A2E" stroke="#1A2744" stroke-width="1"/>
    <circle cx="14" cy="17" r="5" fill="#2AF2CE"/>
    <path d="M11.5,15.5 L13.5,17.5 L17,14" stroke="#0F1A2E" stroke-width="2" fill="none"/>
    <text x="26" y="20" fill="#2AF2CE" font-family="Inter, system-ui, sans-serif" font-size="11" font-weight="600">Fuera de CLOUD Act</text>
    <text x="14" y="40" fill="#94A3B8" font-family="Inter, system-ui, sans-serif" font-size="10">Ley 25.326 Argentina</text>
    <line x1="155" y1="40" x2="302" y2="55" stroke="#1A2744" stroke-width="1"/>
  </g>

</svg>
